PathFileType	4	(X/Y/Z)	C:\Users\Basilio\Documents\Thesis Gigler\squatting_fais\c3dfiles\019\SJ_pre1\markers_experimental.trc
DataRate	CameraRate	NumFrames	NumMarkers	Units	OrigDataRate	OrigDataStartFrame	OrigNumFrames
200.000000	200.000000	4	59	mm	200.000000	0	1173
Frame#	Time	FHD			LBHD			RBHD			C7			T10			CLAV			LSHO			LUUPA			LMUPA			LDUPA			LLEP			LMEP			LRAD			LUL			LRFIN			RSHO			RUPA1			RMUPA			RDUPA			RLEP			RMEP			RRAD			RUL			RUFIN			LASI			RASI			USACR			LSACR			RSACR			LTHI1			LTHI2			LTHI3			LTHI4			LLFC			LTIB1			LTIB2			LTIB3			LTIB4			LLMAL			LMMAL			LHEE			LMT1			LMT2			LMT5			RTHI			RTHI2			RTHI3			RTHI4			RLFC			RTIB1			RTIB2			RTIB3			RTIB4			RLMAL			RMMAL			RHEE			RMT1			RMT2			RMT5			
		X1	Y1	Z1	X2	Y2	Z2	X3	Y3	Z3	X4	Y4	Z4	X5	Y5	Z5	X6	Y6	Z6	X7	Y7	Z7	X8	Y8	Z8	X9	Y9	Z9	X10	Y10	Z10	X11	Y11	Z11	X12	Y12	Z12	X13	Y13	Z13	X14	Y14	Z14	X15	Y15	Z15	X16	Y16	Z16	X17	Y17	Z17	X18	Y18	Z18	X19	Y19	Z19	X20	Y20	Z20	X21	Y21	Z21	X22	Y22	Z22	X23	Y23	Z23	X24	Y24	Z24	X25	Y25	Z25	X26	Y26	Z26	X27	Y27	Z27	X28	Y28	Z28	X29	Y29	Z29	X30	Y30	Z30	X31	Y31	Z31	X32	Y32	Z32	X33	Y33	Z33	X34	Y34	Z34	X35	Y35	Z35	X36	Y36	Z36	X37	Y37	Z37	X38	Y38	Z38	X39	Y39	Z39	X40	Y40	Z40	X41	Y41	Z41	X42	Y42	Z42	X43	Y43	Z43	X44	Y44	Z44	X45	Y45	Z45	X46	Y46	Z46	X47	Y47	Z47	X48	Y48	Z48	X49	Y49	Z49	X50	Y50	Z50	X51	Y51	Z51	X52	Y52	Z52	X53	Y53	Z53	X54	Y54	Z54	X55	Y55	Z55	X56	Y56	Z56	X57	Y57	Z57	X58	Y58	Z58	X59	Y59	Z59	

1	0	-201.4036407470704	1687.581298828125	-860.2504882812502	-336.4738159179688	1649.6044921875	-995.468444824219	-331.6832275390626	1643.7626953125	-855.7872314453127	-355.3016662597657	1471.137817382813	-921.2608642578127	-399.2809143066407	1183.85693359375	-918.7188720703127	-217.8953094482422	1425.854125976563	-930.162048339844	-288.8454589843751	1461.114135742188	-1083.701049804688	-304.4695129394532	1313.024291992188	-1183.909301757813	-296.7998352050782	1270.85498046875	-1158.605102539063	-318.2735595703126	1253.369995117188	-1211.643676757813	-358.3240356445313	1199.944702148438	-1265.013916015625	-419.0610351562501	1187.700561523438	-1237.08984375	-323.4118652343751	990.193054199219	-1121.494750976563	-302.9437866210938	964.9373168945315	-1180.72802734375	-280.0749511718751	967.264831542969	-1084.523315429688	-266.8937988281251	1460.147827148438	-780.2702636718752	-330.6521301269532	1330.8447265625	-641.0330810546876	-297.6867065429688	1293.271118164063	-643.7288208007814	-334.9055175781251	1272.388793945313	-603.1012573242189	-336.4675292968751	1194.965454101563	-576.4651489257814	-398.9405517578126	1194.936401367188	-592.5989379882814	-322.2196655273438	986.3981933593752	-723.8505859375001	-293.4100036621094	958.2578125000002	-673.5375976562501	-276.4941101074219	959.1252441406252	-763.6336059570314	-275.5327758789063	962.8133544921877	-1032.192504882813	-264.4768676757813	959.1502075195315	-825.397644042969	-412.8721313476564	1058.083862304688	-920.0657348632815	-426.6972045898439	1026.753784179688	-946.6907348632815	-421.5545959472657	1028.426147460938	-889.146423339844	-356.7399291992188	716.7573852539064	-1129.902221679688	-313.2060241699219	643.6494750976564	-1139.0654296875	-267.6667480468751	651.4780273437501	-1126.883178710938	-333.8549499511719	586.1447143554689	-1129.514282226563	-326.8524475097657	491.4183959960939	-1124.962524414063	-277.6947937011719	350.4489746093751	-1116.847534179688	-342.0660095214844	314.7081909179688	-1165.621215820313	-303.1961059570313	307.7471923828126	-1149.0341796875	-302.3798828125001	224.647933959961	-1124.669067382813	-380.4670104980469	99.11716461181643	-1154.277709960938	-349.8424072265626	98.0572204589844	-1076.238403320313	-431.7613220214845	47.00227355957032	-1102.215209960938	-211.0925750732422	57.21273040771486	-1113.078979492188	-217.2040557861329	58.86582946777345	-1155.356079101563	-264.0573730468751	36.51411819458009	-1204.135986328125	-320.8117065429688	783.035339355469	-723.0049438476564	-280.4268798828126	733.1230468750001	-723.4992065429689	-252.6644287109376	729.0538940429689	-742.5521850585939	-298.2334289550782	651.0122070312501	-709.0184326171876	-318.2379760742188	488.1731567382814	-721.3137207031251	-275.7845458984376	304.9297790527344	-745.4677124023439	-338.3064270019532	233.3390045166016	-687.4070434570314	-300.6423950195313	227.7704620361329	-713.9660644531251	-303.1577453613282	180.4875793457032	-748.9970092773439	-370.6490173339844	99.97515106201175	-702.6159667968751	-340.1733093261719	97.48780822753909	-774.6489257812502	-414.2765502929689	44.11645507812501	-757.1711425781251	-206.5916900634766	53.73767471313478	-728.0712890625001	-213.931381225586	60.78538513183595	-681.6751098632814	-262.9889221191407	41.01467895507813	-638.4102172851564	
2	0.005	-198.8246612548829	1689.198852539063	-859.7246704101565	-335.5116882324219	1649.111083984375	-995.3568115234377	-330.7968139648438	1643.326171875	-855.672058105469	-354.4987182617188	1470.777954101563	-921.1711425781252	-399.4307556152345	1183.678466796875	-918.718933105469	-217.1716003417969	1425.105712890625	-930.0723266601565	-287.7873535156251	1460.618286132813	-1083.666137695313	-303.9600219726563	1312.7021484375	-1183.892578125	-296.4999084472657	1270.457641601563	-1158.583862304688	-318.0609130859376	1253.06298828125	-1211.684204101563	-358.3460388183594	1199.891845703125	-1265.203491210938	-419.2183837890626	1187.978881835938	-1237.351928710938	-324.5509338378907	989.9651489257815	-1121.58740234375	-304.1007385253907	964.5876464843752	-1180.829711914063	-281.5525207519532	966.8084716796877	-1084.645385742188	-266.0396423339844	1459.51416015625	-780.1813964843752	-330.1100769042969	1330.43408203125	-640.9145507812501	-297.9376831054688	1293.31787109375	-644.4711303710939	-334.7737426757813	1271.840087890625	-602.9321899414064	-336.8431091308594	1194.119262695313	-576.2754516601564	-399.1968994140626	1194.909912109375	-592.4979248046876	-323.5222473144532	985.983581542969	-723.8859252929689	-294.9292907714844	957.6895751953127	-673.5942382812501	-277.4685668945313	958.6372680664065	-763.8385009765626	-276.8052978515626	962.191101074219	-1032.263671875	-265.9065551757813	958.4610595703127	-825.5237426757815	-413.8494567871095	1057.876708984375	-920.054138183594	-427.7895812988282	1026.650756835938	-946.739929199219	-422.5151977539064	1028.256225585938	-889.1436767578127	-356.8989868164063	716.4332885742189	-1130.392578125	-312.7928466796876	643.5858154296876	-1139.618530273438	-267.3549194335938	651.6578979492189	-1127.217041015625	-333.1515502929688	585.9865722656251	-1130.067993164063	-325.8418579101563	491.3196105957032	-1125.646484375	-276.7709960937501	350.1598205566407	-1117.298095703125	-341.4125366210938	314.6735229492188	-1165.858642578125	-302.4810180664063	307.5466613769532	-1149.373901367188	-301.9385070800782	224.4510955810547	-1124.902221679688	-380.3756713867188	99.1169357299805	-1154.353393554688	-349.7435607910157	98.10982513427737	-1076.294677734375	-431.7939758300782	47.03583145141602	-1102.238891601563	-211.086898803711	57.1912078857422	-1113.112670898438	-217.1920471191407	58.90476226806642	-1155.33203125	-264.0705261230469	36.53911590576173	-1204.16796875	-321.6737060546876	782.5793457031252	-722.9316406250001	-280.9824829101563	733.0125122070314	-723.3725585937501	-253.2613983154297	729.0979003906251	-742.3739013671876	-298.0288696289063	650.9459838867189	-708.7344360351564	-316.7996520996094	487.8871154785157	-720.9640502929689	-274.8148193359376	304.6120910644532	-745.2935791015626	-337.6653747558594	233.2742614746094	-687.3018798828126	-299.9176635742188	227.5749664306641	-713.8494873046876	-302.7786560058594	180.2929077148438	-749.0080566406251	-370.5445861816407	100.015609741211	-702.5494384765626	-340.0733032226563	97.52461242675784	-774.729187011719	-414.3468017578126	44.13767242431641	-757.1383056640626	-206.5902557373047	53.73833465576173	-728.0704956054689	-213.897201538086	60.77101135253908	-681.6594238281251	-262.9330749511719	41.04790496826173	-638.4352416992189	
3	0.01	-196.0814514160157	1690.775512695313	-859.236999511719	-334.4643859863282	1648.55712890625	-995.1652832031252	-329.7015380859376	1642.925903320313	-855.5520019531252	-353.7353210449219	1470.380737304688	-921.0992431640627	-399.5976867675782	1183.50244140625	-918.7022094726565	-216.3393554687501	1424.379150390625	-929.9754638671877	-286.6495666503907	1460.039794921875	-1083.571533203125	-303.3608398437501	1312.277465820313	-1183.913696289063	-296.1780090332032	1269.95751953125	-1158.6240234375	-317.8334655761719	1252.72216796875	-1211.72119140625	-358.2052307128907	1199.431762695313	-1264.93505859375	-419.2644042968751	1188.265869140625	-1237.54052734375	-325.7345581054688	989.6453247070315	-1121.7490234375	-305.4493103027344	964.2153320312502	-1180.997802734375	-283.1947021484376	966.241882324219	-1084.851684570313	-265.1860961914063	1458.839599609375	-780.0611572265627	-329.5603942871094	1330.006591796875	-640.7774047851564	-297.6534729003907	1292.671264648438	-644.3380126953126	-334.7477722167969	1271.356201171875	-602.8486938476564	-337.0538940429688	1193.773071289063	-576.2070312500001	-399.4992675781251	1194.802734375	-592.3478393554689	-326.7783203125001	986.080993652344	-725.6135253906251	-296.5241088867188	957.0826416015627	-673.6317138671876	-280.7654113769532	957.9566040039065	-762.9561767578126	-278.3304748535157	961.5828247070315	-1032.43408203125	-267.4169311523438	957.6998291015627	-825.6601562500002	-414.8686523437501	1057.737670898438	-920.0362548828127	-428.7976074218751	1026.5869140625	-946.8015747070315	-423.704315185547	1028.095703125	-889.2725219726565	-356.9176940917969	716.0101928710939	-1130.94140625	-312.3401184082032	643.5578002929689	-1140.098388671875	-266.9861145019532	651.7940063476564	-1127.587646484375	-332.9038085937501	585.8927612304689	-1131.24267578125	-324.6138610839844	491.1520080566407	-1126.385131835938	-275.9053649902344	349.9117431640626	-1117.710205078125	-340.3891601562501	314.3951721191407	-1166.42236328125	-301.5005187988282	307.1595458984376	-1149.87109375	-301.4238891601563	224.2380981445313	-1125.185668945313	-380.2768554687501	99.19126129150393	-1154.486328125	-349.7198791503907	98.19563293457034	-1076.340209960938	-431.7544860839845	46.96937561035157	-1102.221313476563	-211.0869293212891	57.22475814819337	-1113.106323242188	-217.1938476562501	58.90968322753908	-1155.335693359375	-264.0842895507813	36.54930496215821	-1204.163330078125	-322.7171630859376	782.1011352539065	-722.8415527343751	-281.6547546386719	732.9108276367189	-723.2434692382814	-253.9604187011719	729.2225952148439	-742.1467895507814	-297.8226318359376	649.3027343750001	-708.3213500976564	-315.1645202636719	487.564178466797	-720.6166381835939	-273.8851318359376	304.2748107910157	-745.2212524414064	-337.0474548339844	233.1634368896485	-687.1875610351564	-299.1877136230469	227.2988281250001	-713.7766113281251	-302.3238830566407	180.111801147461	-748.9953613281251	-370.3519897460938	100.0366363525391	-702.4744262695314	-340.0141296386719	97.50022125244143	-774.7626953125002	-414.2918701171876	44.10860061645509	-757.1641845703126	-206.6615295410157	53.75485992431642	-728.1807861328126	-213.8422088623047	60.7860679626465	-681.6911010742189	-262.9014892578126	41.03498458862305	-638.4635620117189	
4	0.015	-197.8634643554688	1684.895751953125	-860.262878417969	-333.4905090332032	1647.928955078125	-995.0433349609377	-328.6796875000001	1642.407592773438	-855.4041748046877	-352.8537292480469	1469.877563476563	-921.0330810546877	-399.7930908203126	1183.26708984375	-918.6450805664065	-215.5970001220704	1423.592041015625	-929.8074340820315	-284.3698425292969	1459.461059570313	-1082.586181640625	-302.8225097656251	1311.8046875	-1183.91748046875	-295.9616699218751	1269.374267578125	-1158.627075195313	-317.6081542968751	1252.33349609375	-1211.783203125	-358.1926879882813	1199.3037109375	-1265.088989257813	-419.389373779297	1188.4873046875	-1237.789916992188	-326.9796447753907	989.3244628906252	-1121.844116210938	-306.7543945312501	963.770446777344	-1181.087768554688	-283.3168334960938	965.588562011719	-1084.877685546875	-264.3699951171876	1458.031127929688	-779.930114746094	-329.1535339355469	1329.534545898438	-640.6615600585939	-297.4307861328126	1292.006713867188	-644.1578369140626	-334.6910705566407	1270.80322265625	-602.7584228515626	-337.2559814453126	1193.625732421875	-576.1347045898439	-399.8179016113282	1194.686889648438	-592.2519531250001	-326.3363342285157	985.1214599609377	-724.0151977539064	-297.8683776855469	956.519470214844	-673.6951904296876	-280.4823608398438	957.3330078125002	-763.9365234375001	-278.8664550781251	960.742370605469	-1032.26318359375	-268.8973693847657	956.807556152344	-825.7138671875002	-415.8115234375001	1057.535766601563	-920.099304199219	-429.8920898437501	1026.453979492188	-946.891540527344	-424.9241333007814	1027.910522460938	-889.3945922851565	-356.9356079101563	715.5487060546876	-1131.421997070313	-311.8742370605469	643.4450683593751	-1140.59228515625	-266.5502014160157	651.9011840820314	-1127.9072265625	-332.1037597656251	585.6151733398439	-1131.845336914063	-323.2593688964844	491.0209350585939	-1127.046020507813	-274.8322143554688	349.6363220214844	-1118.182861328125	-339.4968261718751	314.2117614746094	-1166.83642578125	-300.7090454101563	307.0618286132813	-1150.218139648438	-300.8604431152344	224.0382232666016	-1125.450805664063	-380.1555786132813	99.14701080322268	-1154.556762695313	-349.5688171386719	98.22088623046878	-1076.338256835938	-431.7613220214845	47.00227355957032	-1102.215209960938	-211.1729431152344	57.23891830444337	-1113.067260742188	-217.1927795410157	58.9109344482422	-1155.337646484375	-264.0570373535157	36.53943252563477	-1204.140747070313	-323.8940124511719	781.6016845703127	-722.7355346679689	-282.3203430175782	732.7398681640626	-723.0758056640626	-254.7076416015626	729.3126831054689	-741.8562011718751	-297.6607055664063	649.0321044921876	-708.0744628906251	-313.5176696777344	487.2889709472657	-720.2059936523439	-272.9021606445313	303.9558410644532	-745.0261840820314	-336.2671508789063	233.0160522460938	-687.0328979492189	-298.4022521972657	227.0787048339844	-713.6258544921876	-301.8982849121094	179.9334411621094	-748.9663696289064	-370.2239685058594	100.0658721923828	-702.4133300781251	-339.7985534667969	97.50764465332034	-774.678894042969	-414.1964721679689	44.05321502685548	-757.1491088867189	-206.6119689941407	53.77877426147462	-728.1630249023439	-213.9253387451172	60.86877059936525	-681.7312622070314	-262.9190063476563	41.04211044311524	-638.4952392578126	
